<svg xmlns:xlink="http://www.w3.org/1999/xlink" xmlns="http://www.w3.org/2000/svg" width="1352.34" height="656.37"><path d="M0 649.8063 L0 328.185 s16 5.242439761577453 16 5.242439761577453 s16 4.045347138949118 16 4.045347138949118 s16 -0.9680624151823132 16 -0.9680624151823132 s16 5.512685227538804 16 5.512685227538804 s16 1.4156599097324323 16 1.4156599097324323 s16 0.8991751253376403 16 0.8991751253376403 s16 -4.713948601223128 16 -4.713948601223128 s16 -5.033966141636135 16 -5.033966141636135 s16 2.643939567217629 16 2.643939567217629 s16 -4.251047318609745 16 -4.251047318609745 s16 -1.621452210935896 16 -1.621452210935896 s16 2.592246737783202 16 2.592246737783202 s16 1.2395259458425372 16 1.2395259458425372 s16 -4.519178584205495 16 -4.519178584205495 s16 0.667847222731357 16 0.667847222731357 s16 5.638465996173265 16 5.638465996173265 s16 -5.91690378058668 16 -5.91690378058668 s16 -0.8157783649025578 16 -0.8157783649025578 s16 1.0187444401946806 16 1.0187444401946806 s16 2.6605357148464384 16 2.6605357148464384 s16 4.372379691777212 16 4.372379691777212 s16 -2.572760332774199 16 -2.572760332774199 s16 2.543438148289944 16 2.543438148289944 s16 4.128739576578921 16 4.128739576578921 s16 3.770347227673404 16 3.770347227673404 s16 4.107880889539146 16 4.107880889539146 s16 5.960663755760056 16 5.960663755760056 s16 -3.622817369705672 16 -3.622817369705672 s16 -0.7555658301185151 16 -0.7555658301185151 s16 -4.907259569556917 16 -4.907259569556917 s16 -5.779292843642702 16 -5.779292843642702 s16 3.5340311710758163 16 3.5340311710758163 s16 0.028088535841393814 16 0.028088535841393814 s16 3.3234666126217496 16 3.3234666126217496 s16 -1.5600255535123848 16 -1.5600255535123848 s16 -3.429060914418959 16 -3.429060914418959 s16 0.214210403756101 16 0.214210403756101 s16 3.056525875769527 16 3.056525875769527 s16 2.0924147275673617 16 2.0924147275673617 s16 -2.594577104624853 16 -2.594577104624853 s16 0.9563604912701242 16 0.9563604912701242 s16 -3.134740044099048 16 -3.134740044099048 s16 0.6708414351621528 16 0.6708414351621528 s16 5.693314489563522 16 5.693314489563522 s16 -4.400074006396851 16 -4.400074006396851 s16 0.6387024016494696 16 0.6387024016494696 s16 -5.391912977359826 16 -5.391912977359826 s16 -5.076180590713275 16 -5.076180590713275 s16 -3.76866790181359 16 -3.76866790181359 s16 2.312282399176034 16 2.312282399176034 s16 -4.420682790704579 16 -4.420682790704579 s16 -4.926024164740591 16 -4.926024164740591 s16 4.951424890976373 16 4.951424890976373 s16 -3.106709344630361 16 -3.106709344630361 s16 -1.714111003298644 16 -1.714111003298644 s16 -4.345249740759294 16 -4.345249740759294 s16 -2.580522264440682 16 -2.580522264440682 s16 3.9778658117474786 16 3.9778658117474786 s16 -2.6171681954569497 16 -2.6171681954569497 s16 -5.589553958457808 16 -5.589553958457808 s16 -5.005781170707706 16 -5.005781170707706 s16 5.747109752702558 16 5.747109752702558 s16 -2.2514868359275697 16 -2.2514868359275697 s16 -0.9258487001574514 16 -0.9258487001574514 s16 -3.6255053499541114 16 -3.6255053499541114 s16 5.437074676515368 16 5.437074676515368 s16 0.6457848061616094 16 0.6457848061616094 s16 -2.2216927783631526 16 -2.2216927783631526 s16 -2.693883978618662 16 -2.693883978618662 s16 2.437965822169632 16 2.437965822169632 s16 -0.45815345977734445 16 -0.45815345977734445 s16 2.063856740868479 16 2.063856740868479 s16 3.4145408733418847 16 3.4145408733418847 s16 3.224495351896042 16 3.224495351896042 s16 3.183909147663776 16 3.183909147663776 s16 0.7889150527245459 16 0.7889150527245459 s16 4.704837393387809 16 4.704837393387809 s16 -4.465891844469363 16 -4.465891844469363 s16 0.7972602875939625 16 0.7972602875939625 s16 4.228269224316377 16 4.228269224316377 s16 1.692376519568998 16 1.692376519568998 s16 5.597786716695094 16 5.597786716695094 s16 -2.4151681119665707 16 -2.4151681119665707 s16 -0.4378927178991754 16 -0.4378927178991754 L1342.34 649.8063 Z" fill="none" stroke="black" stroke-width="3"></path></svg>