<svg xmlns:xlink="http://www.w3.org/1999/xlink" xmlns="http://www.w3.org/2000/svg" width="1352.34" height="656.37"><path d="M0 649.8063 L0 328.185 s16 2.7106172891879154 16 2.7106172891879154 s16 -2.9111371557018852 16 -2.9111371557018852 s16 3.8220549156637116 16 3.8220549156637116 s16 2.78859520572499 16 2.78859520572499 s16 -0.9395741607932813 16 -0.9395741607932813 s16 -3.8493894024785575 16 -3.8493894024785575 s16 -1.8282536258912145 16 -1.8282536258912145 s16 -0.03763842808679918 16 -0.03763842808679918 s16 -3.6167657674785936 16 -3.6167657674785936 s16 -1.6913640670136871 16 -1.6913640670136871 s16 1.4359120440487363 16 1.4359120440487363 s16 -0.9084601141629189 16 -0.9084601141629189 s16 1.5071797339141817 16 1.5071797339141817 s16 0.8524735330162301 16 0.8524735330162301 s16 2.9072751643519776 16 2.9072751643519776 s16 2.575818613668801 16 2.575818613668801 s16 3.0869406971222926 16 3.0869406971222926 s16 2.253075572604155 16 2.253075572604155 s16 -0.9704119781462239 16 -0.9704119781462239 s16 -1.3901682071048658 16 -1.3901682071048658 s16 2.641667276523492 16 2.641667276523492 s16 -3.251471933086199 16 -3.251471933086199 s16 -0.9780601122091603 16 -0.9780601122091603 s16 1.9490459305072978 16 1.9490459305072978 s16 3.880274902192001 16 3.880274902192001 s16 2.0916762374473485 16 2.0916762374473485 s16 2.3149995387113886 16 2.3149995387113886 s16 -2.8057201549387987 16 -2.8057201549387987 s16 0.6189846989762664 16 0.6189846989762664 s16 0.603016043816762 16 0.603016043816762 s16 2.1535823510415266 16 2.1535823510415266 s16 -2.7844091010051244 16 -2.7844091010051244 s16 -1.6869061886014158 16 -1.6869061886014158 s16 0.1369580347527517 16 0.1369580347527517 s16 0.6852735114596911 16 0.6852735114596911 s16 2.151937325726303 16 2.151937325726303 s16 -2.4915310090272307 16 -2.4915310090272307 s16 2.5133220141953743 16 2.5133220141953743 s16 3.829474548390669 16 3.829474548390669 s16 0.3921181202460087 16 0.3921181202460087 s16 1.7923133945687226 16 1.7923133945687226 s16 -3.3248308885888314 16 -3.3248308885888314 s16 -3.335032725599218 16 -3.335032725599218 s16 -0.3255381983377852 16 -0.3255381983377852 s16 0.8813419225858787 16 0.8813419225858787 s16 -3.3009567261874455 16 -3.3009567261874455 s16 -1.5471765843577305 16 -1.5471765843577305 s16 3.600074451662927 16 3.600074451662927 s16 -3.0836585755934607 16 -3.0836585755934607 s16 3.037517604684309 16 3.037517604684309 s16 -3.7112398543972223 16 -3.7112398543972223 s16 1.4729187755810624 16 1.4729187755810624 s16 -3.332197475227808 16 -3.332197475227808 s16 1.6696034039157883 16 1.6696034039157883 s16 -2.3704799857432377 16 -2.3704799857432377 s16 0.3267555655463372 16 0.3267555655463372 s16 -1.384185858461029 16 -1.384185858461029 s16 1.0585970585251392 16 1.0585970585251392 s16 1.272915225235499 16 1.272915225235499 s16 -3.8682136035620918 16 -3.8682136035620918 s16 -0.08570592923824272 16 -0.08570592923824272 s16 2.0678155249594514 16 2.0678155249594514 s16 -2.8097776417200535 16 -2.8097776417200535 s16 -0.19047582949614217 16 -0.19047582949614217 s16 -2.7605119036725743 16 -2.7605119036725743 s16 0.01991450387057192 16 0.01991450387057192 s16 2.314164567843374 16 2.314164567843374 s16 0.6168907622808142 16 0.6168907622808142 s16 0.10544901620673919 16 0.10544901620673919 s16 0.9807855432663999 16 0.9807855432663999 s16 -3.8436125768875637 16 -3.8436125768875637 s16 1.8001586346810594 16 1.8001586346810594 s16 3.942162762362077 16 3.942162762362077 s16 -1.3587645768134848 16 -1.3587645768134848 s16 -0.8943311804502834 16 -0.8943311804502834 s16 -0.260448216245047 16 -0.260448216245047 s16 -3.032744369585801 16 -3.032744369585801 s16 -0.36346710834345686 16 -0.36346710834345686 s16 -0.39065732873579506 16 -0.39065732873579506 s16 -3.0686615894626534 16 -3.0686615894626534 s16 2.6226012608724503 16 2.6226012608724503 s16 2.4130544777439358 16 2.4130544777439358 s16 0.4193750161273897 16 0.4193750161273897 s16 1.601629209189058 16 1.601629209189058 L1342.34 649.8063 Z" fill="none" stroke="black" stroke-width="3"></path></svg>