<svg xmlns:xlink="http://www.w3.org/1999/xlink" xmlns="http://www.w3.org/2000/svg" width="1352.34" height="656.37"><path d="M0 649.8063 L0 328.185 s16 0.9572420747309192 16 0.9572420747309192 s16 -2.9701333650729405 16 -2.9701333650729405 s16 1.439511596165222 16 1.439511596165222 s16 0.8039389505284333 16 0.8039389505284333 s16 0.4902102084749367 16 0.4902102084749367 s16 -2.6292112652445714 16 -2.6292112652445714 s16 2.8156409648333445 16 2.8156409648333445 s16 2.689344420958838 16 2.689344420958838 s16 1.4537599364389058 16 1.4537599364389058 s16 2.2774949155167525 16 2.2774949155167525 s16 -2.0425411687985457 16 -2.0425411687985457 s16 -1.389954649059845 16 -1.389954649059845 s16 2.771333171988667 16 2.771333171988667 s16 -0.8337042809915034 16 -0.8337042809915034 s16 -2.2540850336572738 16 -2.2540850336572738 s16 -1.8487362043216735 16 -1.8487362043216735 s16 1.2046255701869417 16 1.2046255701869417 s16 1.2985912852221855 16 1.2985912852221855 s16 -2.6818713872981133 16 -2.6818713872981133 s16 -1.6794379875945822 16 -1.6794379875945822 s16 -1.8892299383477487 16 -1.8892299383477487 s16 -1.8104394804934043 16 -1.8104394804934043 s16 -2.916109000719618 16 -2.916109000719618 s16 2.1770338501199404 16 2.1770338501199404 s16 1.8971375485615383 16 1.8971375485615383 s16 1.614915511578014 16 1.614915511578014 s16 -0.8926832880887594 16 -0.8926832880887594 s16 0.8138503424367856 16 0.8138503424367856 s16 0.07143578779696735 16 0.07143578779696735 s16 0.42560126897534456 16 0.42560126897534456 s16 2.1140426111016675 16 2.1140426111016675 s16 -2.5457122154432823 16 -2.5457122154432823 s16 -0.5526275898381479 16 -0.5526275898381479 s16 -2.654717831786634 16 -2.654717831786634 s16 -2.598074577851428 16 -2.598074577851428 s16 2.6125831181981662 16 2.6125831181981662 s16 -1.1060244928068848 16 -1.1060244928068848 s16 2.4545412111625287 16 2.4545412111625287 s16 -0.9598503573919506 16 -0.9598503573919506 s16 -0.8852041506915169 16 -0.8852041506915169 s16 1.9642502339361183 16 1.9642502339361183 s16 -0.008949306550591452 16 -0.008949306550591452 s16 0.23897992368785692 16 0.23897992368785692 s16 1.2968210660989063 16 1.2968210660989063 s16 2.6628247266175626 16 2.6628247266175626 s16 0.8729738405805065 16 0.8729738405805065 s16 0.4696946758532601 16 0.4696946758532601 s16 -0.5683219387457408 16 -0.5683219387457408 s16 2.379801097131646 16 2.379801097131646 s16 2.388967326769971 16 2.388967326769971 s16 2.901710259724059 16 2.901710259724059 s16 -1.2858314467508456 16 -1.2858314467508456 s16 -0.7108727751094537 16 -0.7108727751094537 s16 -0.24844453316842818 16 -0.24844453316842818 s16 -0.5764950858485847 16 -0.5764950858485847 s16 -2.525301200554028 16 -2.525301200554028 s16 1.1211117718747268 16 1.1211117718747268 s16 1.0434151340350781 16 1.0434151340350781 s16 2.2103668668842 16 2.2103668668842 s16 1.0753261125647726 16 1.0753261125647726 s16 -1.6500733209413139 16 -1.6500733209413139 s16 1.8317730567454613 16 1.8317730567454613 s16 -0.5790405991840442 16 -0.5790405991840442 s16 0.6507984623095813 16 0.6507984623095813 s16 -1.1832678139673938 16 -1.1832678139673938 s16 -1.2256331799080287 16 -1.2256331799080287 s16 -2.6311561794614455 16 -2.6311561794614455 s16 -1.7417232198980437 16 -1.7417232198980437 s16 2.105162064806003 16 2.105162064806003 s16 0.3202803484060399 16 0.3202803484060399 s16 -0.480907740995006 16 -0.480907740995006 s16 2.9087527546754175 16 2.9087527546754175 s16 1.7334618826955421 16 1.7334618826955421 s16 1.2628065349034592 16 1.2628065349034592 s16 0.808421279519143 16 0.808421279519143 s16 1.048700617063083 16 1.048700617063083 s16 -1.4104061357563569 16 -1.4104061357563569 s16 1.070442624627082 16 1.070442624627082 s16 0.7448733645904286 16 0.7448733645904286 s16 -0.2530029211717433 16 -0.2530029211717433 s16 -1.8704382028388955 16 -1.8704382028388955 s16 1.2781476626741286 16 1.2781476626741286 s16 -0.4476614602717346 16 -0.4476614602717346 s16 0.14756538387011453 16 0.14756538387011453 L1342.34 649.8063 Z" fill="none" stroke="black" stroke-width="3"></path></svg>