<svg xmlns:xlink="http://www.w3.org/1999/xlink" xmlns="http://www.w3.org/2000/svg" width="1352.34" height="656.37"><path d="M0 649.8063 L0 328.185 s16 -0.20766275776930865 16 -0.20766275776930865 s16 -0.7043595818335979 16 -0.7043595818335979 s16 -0.764983804278359 16 -0.764983804278359 s16 -0.8102721836927951 16 -0.8102721836927951 s16 -0.8041336244854178 16 -0.8041336244854178 s16 0.8902938223255203 16 0.8902938223255203 s16 -0.860913759872739 16 -0.860913759872739 s16 -0.8667810100974989 16 -0.8667810100974989 s16 -0.2272407094387079 16 -0.2272407094387079 s16 -0.3763515388451326 16 -0.3763515388451326 s16 -0.8846892975529039 16 -0.8846892975529039 s16 0.8390146889351495 16 0.8390146889351495 s16 0.7281005909472005 16 0.7281005909472005 s16 -0.476496587200006 16 -0.476496587200006 s16 -0.7712668148192199 16 -0.7712668148192199 s16 -0.5529154767311013 16 -0.5529154767311013 s16 0.03484454754258648 16 0.03484454754258648 s16 0.9115410539194442 16 0.9115410539194442 s16 -0.001150117245720228 16 -0.001150117245720228 s16 -0.6524711483629293 16 -0.6524711483629293 s16 0.29564928120270473 16 0.29564928120270473 s16 0.6076801460156505 16 0.6076801460156505 s16 -0.20068310358483288 16 -0.20068310358483288 s16 0.438043612557399 16 0.438043612557399 s16 0.9794435828219354 16 0.9794435828219354 s16 0.01532143794462737 16 0.01532143794462737 s16 -0.7813586226396376 16 -0.7813586226396376 s16 -0.6108756849830135 16 -0.6108756849830135 s16 0.838936747346239 16 0.838936747346239 s16 -0.49013361713257764 16 -0.49013361713257764 s16 0.6548422518553885 16 0.6548422518553885 s16 0.8871682613257756 16 0.8871682613257756 s16 -0.4854494598557739 16 -0.4854494598557739 s16 0.5376626146027208 16 0.5376626146027208 s16 -0.347969332262136 16 -0.347969332262136 s16 0.3040957909953885 16 0.3040957909953885 s16 -0.7292139910267892 16 -0.7292139910267892 s16 -0.43040208827974213 16 -0.43040208827974213 s16 -0.06581136787003716 16 -0.06581136787003716 s16 -0.7401792721567202 16 -0.7401792721567202 s16 -0.2538220795673647 16 -0.2538220795673647 s16 -0.4728967568546931 16 -0.4728967568546931 s16 -0.26088279263890257 16 -0.26088279263890257 s16 0.4842306674406891 16 0.4842306674406891 s16 -0.9799068253988481 16 -0.9799068253988481 s16 -0.7383504825819496 16 -0.7383504825819496 s16 0.6847464929233937 16 0.6847464929233937 s16 0.4198246629851643 16 0.4198246629851643 s16 -0.43703480615621837 16 -0.43703480615621837 s16 0.45033246659998216 16 0.45033246659998216 s16 0.3850262769399624 16 0.3850262769399624 s16 0.8349506577482311 16 0.8349506577482311 s16 0.18359346400011356 16 0.18359346400011356 s16 0.3036524909493763 16 0.3036524909493763 s16 0.658730959464195 16 0.658730959464195 s16 0.49385185327967296 16 0.49385185327967296 s16 -0.46306605649545585 16 -0.46306605649545585 s16 -0.9704778266174419 16 -0.9704778266174419 s16 -0.47452449402848496 16 -0.47452449402848496 s16 0.4371154228826448 16 0.4371154228826448 s16 -0.5180900607995511 16 -0.5180900607995511 s16 -0.6749139691221147 16 -0.6749139691221147 s16 -0.9960946847690919 16 -0.9960946847690919 s16 0.5534074150110975 16 0.5534074150110975 s16 -0.13141615655699423 16 -0.13141615655699423 s16 0.8381777634202185 16 0.8381777634202185 s16 0.49150829999902124 16 0.49150829999902124 s16 0.9381603428241672 16 0.9381603428241672 s16 0.8703798442898747 16 0.8703798442898747 s16 0.8296349023450267 16 0.8296349023450267 s16 0.7014369634609849 16 0.7014369634609849 s16 0.6385342797828213 16 0.6385342797828213 s16 -0.8922166771078754 16 -0.8922166771078754 s16 -0.7381532211257702 16 -0.7381532211257702 s16 -0.9472815590542392 16 -0.9472815590542392 s16 -0.8051447274252115 16 -0.8051447274252115 s16 -0.36237971500674515 16 -0.36237971500674515 s16 -0.14784475741990333 16 -0.14784475741990333 s16 -0.7599551359046077 16 -0.7599551359046077 s16 0.15731499300628204 16 0.15731499300628204 s16 0.38158493703185403 16 0.38158493703185403 s16 -0.35428179211218946 16 -0.35428179211218946 s16 -0.5460553537867554 16 -0.5460553537867554 s16 -0.4293043299675605 16 -0.4293043299675605 L1342.34 649.8063 Z" fill="none" stroke="black" stroke-width="3"></path></svg>