<svg xmlns:xlink="http://www.w3.org/1999/xlink" xmlns="http://www.w3.org/2000/svg" width="1352.34" height="656.37"><path d="M0 649.8063 L0 328.185 s16 -3.952406395611309 16 -3.952406395611309 s16 -2.671185635821139 16 -2.671185635821139 s16 -7.638723252111543 16 -7.638723252111543 s16 1.4375224673757643 16 1.4375224673757643 s16 6.167702558726436 16 6.167702558726436 s16 2.4958225656344126 16 2.4958225656344126 s16 -4.465365426208656 16 -4.465365426208656 s16 3.6145937942802284 16 3.6145937942802284 s16 4.844780540931044 16 4.844780540931044 s16 -0.3347758132257681 16 -0.3347758132257681 s16 -0.43313635741667866 16 -0.43313635741667866 s16 -2.8290017765988438 16 -2.8290017765988438 s16 -1.5913442586178945 16 -1.5913442586178945 s16 2.3131266922929505 16 2.3131266922929505 s16 5.638591958108734 16 5.638591958108734 s16 7.910681736863548 16 7.910681736863548 s16 3.827431869480325 16 3.827431869480325 s16 4.50846585298164 16 4.50846585298164 s16 0.986816367782172 16 0.986816367782172 s16 -1.7135007120976482 16 -1.7135007120976482 s16 -1.2490739272978963 16 -1.2490739272978963 s16 -7.7158812573890145 16 -7.7158812573890145 s16 3.1659218831813263 16 3.1659218831813263 s16 -7.247011705294895 16 -7.247011705294895 s16 7.770695231832526 16 7.770695231832526 s16 -1.2023608937269223 16 -1.2023608937269223 s16 -6.714133232678606 16 -6.714133232678606 s16 -1.6748559669870104 16 -1.6748559669870104 s16 -5.034020670988269 16 -5.034020670988269 s16 2.283315530490249 16 2.283315530490249 s16 7.755360543069667 16 7.755360543069667 s16 5.078152730062392 16 5.078152730062392 s16 -6.89978935710575 16 -6.89978935710575 s16 6.7312587157711405 16 6.7312587157711405 s16 3.998396439953641 16 3.998396439953641 s16 -3.0814683812142363 16 -3.0814683812142363 s16 2.5216032942740547 16 2.5216032942740547 s16 7.107889349213558 16 7.107889349213558 s16 -0.7959934872881149 16 -0.7959934872881149 s16 -0.61412056655616 16 -0.61412056655616 s16 5.41689649051235 16 5.41689649051235 s16 -5.872792224914608 16 -5.872792224914608 s16 1.202439126554303 16 1.202439126554303 s16 -6.459887194907637 16 -6.459887194907637 s16 2.590835831510965 16 2.590835831510965 s16 5.071705586908259 16 5.071705586908259 s16 6.845780535420282 16 6.845780535420282 s16 -3.612021486483691 16 -3.612021486483691 s16 -0.0027240195200057826 16 -0.0027240195200057826 s16 2.1384823021611012 16 2.1384823021611012 s16 -4.627788720912179 16 -4.627788720912179 s16 4.440239554528677 16 4.440239554528677 s16 3.635464622296773 16 3.635464622296773 s16 -3.6558714572053397 16 -3.6558714572053397 s16 7.5787869014777485 16 7.5787869014777485 s16 3.5749874557444272 16 3.5749874557444272 s16 0.8662220066684689 16 0.8662220066684689 s16 -0.27276742977740653 16 -0.27276742977740653 s16 6.801668365876601 16 6.801668365876601 s16 0.8871576283303391 16 0.8871576283303391 s16 -5.900935624039015 16 -5.900935624039015 s16 7.055783027787108 16 7.055783027787108 s16 5.162361174148 16 5.162361174148 s16 2.4323301657485352 16 2.4323301657485352 s16 -6.1471378070214335 16 -6.1471378070214335 s16 -2.9760305048564923 16 -2.9760305048564923 s16 -6.906522059995577 16 -6.906522059995577 s16 -3.271545330202578 16 -3.271545330202578 s16 2.1558455873555573 16 2.1558455873555573 s16 6.348287674000542 16 6.348287674000542 s16 -1.9189259512069832 16 -1.9189259512069832 s16 -5.7274081669082335 16 -5.7274081669082335 s16 -4.874219007221043 16 -4.874219007221043 s16 7.0950182069356345 16 7.0950182069356345 s16 -0.4899297082049934 16 -0.4899297082049934 s16 -5.309710244439977 16 -5.309710244439977 s16 -5.971428965466057 16 -5.971428965466057 s16 4.706010343208568 16 4.706010343208568 s16 1.228981916539194 16 1.228981916539194 s16 -7.599955808240157 16 -7.599955808240157 s16 -6.1085156533895635 16 -6.1085156533895635 s16 -1.6677389334093675 16 -1.6677389334093675 s16 1.3768538019175622 16 1.3768538019175622 s16 -0.9105329347826618 16 -0.9105329347826618 L1342.34 649.8063 Z" fill="none" stroke="black" stroke-width="3"></path></svg>