<svg xmlns:xlink="http://www.w3.org/1999/xlink" xmlns="http://www.w3.org/2000/svg" width="1352.34" height="656.37"><path d="M0 649.8063 L0 328.185 s16 7.428494339749485 16 7.428494339749485 s16 -3.119907697653228 16 -3.119907697653228 s16 -4.157426824761359 16 -4.157426824761359 s16 -5.975193666666443 16 -5.975193666666443 s16 -0.5043363498467901 16 -0.5043363498467901 s16 5.711051254430166 16 5.711051254430166 s16 1.9600538305691595 16 1.9600538305691595 s16 0.9904047533289573 16 0.9904047533289573 s16 -4.394144243756033 16 -4.394144243756033 s16 -6.454959157414146 16 -6.454959157414146 s16 -4.105631990106469 16 -4.105631990106469 s16 0.6677768996020861 16 0.6677768996020861 s16 2.890170013914939 16 2.890170013914939 s16 -0.1108823404285042 16 -0.1108823404285042 s16 8.740811846642229 16 8.740811846642229 s16 9.85464199761581 16 9.85464199761581 s16 7.084168898263097 16 7.084168898263097 s16 0.1363865024240507 16 0.1363865024240507 s16 -8.575300488743114 16 -8.575300488743114 s16 2.9163818698251642 16 2.9163818698251642 s16 9.612875696155069 16 9.612875696155069 s16 -1.955599257168279 16 -1.955599257168279 s16 -7.325351836603398 16 -7.325351836603398 s16 -2.214030852678781 16 -2.214030852678781 s16 9.445924102223922 16 9.445924102223922 s16 -6.215477779618661 16 -6.215477779618661 s16 -5.277369125615006 16 -5.277369125615006 s16 0.2743329061530142 16 0.2743329061530142 s16 -8.382318808963237 16 -8.382318808963237 s16 -1.1378314499609 16 -1.1378314499609 s16 5.615922531330733 16 5.615922531330733 s16 -5.532313439684788 16 -5.532313439684788 s16 0.48850648618863346 16 0.48850648618863346 s16 6.387034493322492 16 6.387034493322492 s16 2.0930881546243896 16 2.0930881546243896 s16 5.358203794978631 16 5.358203794978631 s16 -7.820698565540303 16 -7.820698565540303 s16 5.747299407387061 16 5.747299407387061 s16 -3.8567051585479017 16 -3.8567051585479017 s16 5.539296286513049 16 5.539296286513049 s16 1.6779640060641388 16 1.6779640060641388 s16 7.101243822544667 16 7.101243822544667 s16 -4.123051123217345 16 -4.123051123217345 s16 3.1987720092447436 16 3.1987720092447436 s16 9.412622709754075 16 9.412622709754075 s16 -8.843897895183588 16 -8.843897895183588 s16 8.272555166218169 16 8.272555166218169 s16 -8.333063251572131 16 -8.333063251572131 s16 -1.385389389995364 16 -1.385389389995364 s16 -7.49335204223458 16 -7.49335204223458 s16 -3.117551596010828 16 -3.117551596010828 s16 -4.338542963563028 16 -4.338542963563028 s16 -4.528707653252759 16 -4.528707653252759 s16 8.056411532456051 16 8.056411532456051 s16 -4.186792564594826 16 -4.186792564594826 s16 -5.402844924240711 16 -5.402844924240711 s16 3.495037220562134 16 3.495037220562134 s16 4.855075257880208 16 4.855075257880208 s16 1.017996367239915 16 1.017996367239915 s16 0.7011383386176329 16 0.7011383386176329 s16 -6.718420535337546 16 -6.718420535337546 s16 2.7309012417626866 16 2.7309012417626866 s16 1.5433004052045218 16 1.5433004052045218 s16 -6.414587229328577 16 -6.414587229328577 s16 -2.8377320847097787 16 -2.8377320847097787 s16 -6.583224852008347 16 -6.583224852008347 s16 2.8675909773293773 16 2.8675909773293773 s16 -6.967159119855082 16 -6.967159119855082 s16 5.759232750319443 16 5.759232750319443 s16 3.4417134840760966 16 3.4417134840760966 s16 6.934313154506184 16 6.934313154506184 s16 -9.796272606318261 16 -9.796272606318261 s16 0.19431196288167474 16 0.19431196288167474 s16 -3.706627335288082 16 -3.706627335288082 s16 -0.06744938145102353 16 -0.06744938145102353 s16 -7.5242228795714095 16 -7.5242228795714095 s16 4.16857516743137 16 4.16857516743137 s16 -7.927862174480262 16 -7.927862174480262 s16 -5.321179439862687 16 -5.321179439862687 s16 -7.142605726058853 16 -7.142605726058853 s16 -4.961215564415773 16 -4.961215564415773 s16 -2.99145164573408 16 -2.99145164573408 s16 -0.6872285996154082 16 -0.6872285996154082 s16 6.745479040183686 16 6.745479040183686 L1342.34 649.8063 Z" fill="none" stroke="black" stroke-width="3"></path></svg>