<svg xmlns:xlink="http://www.w3.org/1999/xlink" xmlns="http://www.w3.org/2000/svg" width="1352.34" height="656.37"><path d="M0 649.8063 L0 328.185 s16 5.8738300464015065 16 5.8738300464015065 s16 6.526474341654638 16 6.526474341654638 s16 -5.796658939232152 16 -5.796658939232152 s16 1.4211059964927317 16 1.4211059964927317 s16 8.625650014460128 16 8.625650014460128 s16 1.2798406797817101 16 1.2798406797817101 s16 -0.625078890845566 16 -0.625078890845566 s16 4.334433344076555 16 4.334433344076555 s16 7.646718586121625 16 7.646718586121625 s16 -1.16564031099514 16 -1.16564031099514 s16 0.5690918949883774 16 0.5690918949883774 s16 0.4627634146229225 16 0.4627634146229225 s16 -4.887310538000511 16 -4.887310538000511 s16 -6.36645355212916 16 -6.36645355212916 s16 3.4895897246210237 16 3.4895897246210237 s16 7.976377623871683 16 7.976377623871683 s16 8.012701804109293 16 8.012701804109293 s16 1.6201713867613523 16 1.6201713867613523 s16 8.611396432604229 16 8.611396432604229 s16 -3.3692981818480496 16 -3.3692981818480496 s16 8.734998473008133 16 8.734998473008133 s16 2.022909574439628 16 2.022909574439628 s16 3.2703505180667674 16 3.2703505180667674 s16 1.6140796638189197 16 1.6140796638189197 s16 1.3674559622626012 16 1.3674559622626012 s16 -1.3692410727694067 16 -1.3692410727694067 s16 -2.3466568775884564 16 -2.3466568775884564 s16 -6.628444268844217 16 -6.628444268844217 s16 8.094562512083481 16 8.094562512083481 s16 -8.359192675456955 16 -8.359192675456955 s16 -6.7679710205372405 16 -6.7679710205372405 s16 -7.074150208606501 16 -7.074150208606501 s16 -3.4911757361591014 16 -3.4911757361591014 s16 -7.061146350286485 16 -7.061146350286485 s16 5.255965850657099 16 5.255965850657099 s16 7.8749790676621885 16 7.8749790676621885 s16 5.8258308684821465 16 5.8258308684821465 s16 3.6034524430984534 16 3.6034524430984534 s16 2.011287668192044 16 2.011287668192044 s16 5.278054962297938 16 5.278054962297938 s16 -4.0692585418070895 16 -4.0692585418070895 s16 -2.6290608448756667 16 -2.6290608448756667 s16 2.1662904229945745 16 2.1662904229945745 s16 5.238635425941403 16 5.238635425941403 s16 6.047043462068874 16 6.047043462068874 s16 2.8428898718388496 16 2.8428898718388496 s16 2.0637042494098266 16 2.0637042494098266 s16 -0.7537409626285827 16 -0.7537409626285827 s16 2.5364262279549057 16 2.5364262279549057 s16 5.989651717537115 16 5.989651717537115 s16 -6.471307060522159 16 -6.471307060522159 s16 -4.832729523486637 16 -4.832729523486637 s16 8.895749829623464 16 8.895749829623464 s16 -7.746318708446436 16 -7.746318708446436 s16 8.765000033894454 16 8.765000033894454 s16 1.7389285899887295 16 1.7389285899887295 s16 0.1776092306400927 16 0.1776092306400927 s16 -7.41085542572543 16 -7.41085542572543 s16 -4.143358862518053 16 -4.143358862518053 s16 -0.468255399023946 16 -0.468255399023946 s16 3.761702734104682 16 3.761702734104682 s16 5.265116271624904 16 5.265116271624904 s16 6.118772489461622 16 6.118772489461622 s16 0.9947767721556384 16 0.9947767721556384 s16 7.508231955745069 16 7.508231955745069 s16 -3.143003474277217 16 -3.143003474277217 s16 4.339812075840261 16 4.339812075840261 s16 0.4649264027166691 16 0.4649264027166691 s16 -6.871847077847347 16 -6.871847077847347 s16 -2.2546653738639404 16 -2.2546653738639404 s16 -8.413458203996441 16 -8.413458203996441 s16 3.4006073838771056 16 3.4006073838771056 s16 -2.7686279069167457 16 -2.7686279069167457 s16 0.26135749288590526 16 0.26135749288590526 s16 5.320726056261897 16 5.320726056261897 s16 6.771873216108451 16 6.771873216108451 s16 4.509151527516773 16 4.509151527516773 s16 -8.127382624633361 16 -8.127382624633361 s16 -0.6665016252324905 16 -0.6665016252324905 s16 7.70746834857807 16 7.70746834857807 s16 1.67250763196457 16 1.67250763196457 s16 2.9897893288989557 16 2.9897893288989557 s16 6.744560233906674 16 6.744560233906674 s16 -2.616854983693735 16 -2.616854983693735 L1342.34 649.8063 Z" fill="none" stroke="black" stroke-width="3"></path></svg>