<svg xmlns:xlink="http://www.w3.org/1999/xlink" xmlns="http://www.w3.org/2000/svg" width="1352.34" height="656.37"><path d="M0 649.8063 L0 328.185 s16 -0.5059866075496817 16 -0.5059866075496817 s16 -1.8215484060733766 16 -1.8215484060733766 s16 0.42596998756265236 16 0.42596998756265236 s16 0.4932480151328358 16 0.4932480151328358 s16 -1.0588678253554997 16 -1.0588678253554997 s16 1.4235169751361028 16 1.4235169751361028 s16 0.9026109555668311 16 0.9026109555668311 s16 -1.2416623489248861 16 -1.2416623489248861 s16 -1.9844448385818616 16 -1.9844448385818616 s16 1.3901466886632177 16 1.3901466886632177 s16 -1.478228581354955 16 -1.478228581354955 s16 0.5947467676356366 16 0.5947467676356366 s16 1.2106491514705988 16 1.2106491514705988 s16 -0.409884425467121 16 -0.409884425467121 s16 0.055231651695424766 16 0.055231651695424766 s16 1.0918265053519756 16 1.0918265053519756 s16 -0.9524760146007596 16 -0.9524760146007596 s16 -1.0860582653797248 16 -1.0860582653797248 s16 0.2091307418231212 16 0.2091307418231212 s16 1.0089185080589065 16 1.0089185080589065 s16 -0.5350823100785673 16 -0.5350823100785673 s16 1.721974110985359 16 1.721974110985359 s16 -0.5359664293426691 16 -0.5359664293426691 s16 0.9025225830618231 16 0.9025225830618231 s16 -1.1513462921106319 16 -1.1513462921106319 s16 -1.81606887962353 16 -1.81606887962353 s16 -0.4492538596195219 16 -0.4492538596195219 s16 0.2950510868741425 16 0.2950510868741425 s16 1.9180321900349657 16 1.9180321900349657 s16 -0.713550458734411 16 -0.713550458734411 s16 -1.3517096006982792 16 -1.3517096006982792 s16 -1.6086900790423284 16 -1.6086900790423284 s16 0.40058644457538595 16 0.40058644457538595 s16 1.2682005493152033 16 1.2682005493152033 s16 -0.5650653478452448 16 -0.5650653478452448 s16 -1.5137826988820748 16 -1.5137826988820748 s16 -0.5948752813972842 16 -0.5948752813972842 s16 -0.18432893836574937 16 -0.18432893836574937 s16 -1.4206442669212516 16 -1.4206442669212516 s16 -1.9724291248399402 16 -1.9724291248399402 s16 1.1122645809725524 16 1.1122645809725524 s16 -1.1654682391928262 16 -1.1654682391928262 s16 0.745874579964541 16 0.745874579964541 s16 0.14679387899923935 16 0.14679387899923935 s16 -1.0140227742359782 16 -1.0140227742359782 s16 -1.802851239742866 16 -1.802851239742866 s16 -0.9689357532717855 16 -0.9689357532717855 s16 1.0922887484396284 16 1.0922887484396284 s16 -0.269028703009039 16 -0.269028703009039 s16 -1.6043092264836174 16 -1.6043092264836174 s16 -0.33884376698832597 16 -0.33884376698832597 s16 -1.7307217675734705 16 -1.7307217675734705 s16 -1.5316889759611882 16 -1.5316889759611882 s16 1.5377134953957832 16 1.5377134953957832 s16 1.0443373867835986 16 1.0443373867835986 s16 0.04735786415723542 16 0.04735786415723542 s16 0.38170950437984885 16 0.38170950437984885 s16 1.8361105600551104 16 1.8361105600551104 s16 0.342112049534288 16 0.342112049534288 s16 -0.018456401839557657 16 -0.018456401839557657 s16 0.7514397411384541 16 0.7514397411384541 s16 0.888788443346276 16 0.888788443346276 s16 0.1788079804386209 16 0.1788079804386209 s16 -0.3918770151569033 16 -0.3918770151569033 s16 -0.31739162242392815 16 -0.31739162242392815 s16 0.3978579420518198 16 0.3978579420518198 s16 0.7338291931532073 16 0.7338291931532073 s16 -0.12196955142863786 16 -0.12196955142863786 s16 1.0234370673514785 16 1.0234370673514785 s16 -0.35310420364312733 16 -0.35310420364312733 s16 1.9037710759909379 16 1.9037710759909379 s16 1.8900410687199862 16 1.8900410687199862 s16 -0.24749877855384117 16 -0.24749877855384117 s16 1.9513742704694055 16 1.9513742704694055 s16 1.83998988761984 16 1.83998988761984 s16 1.6290344621750545 16 1.6290344621750545 s16 1.2607354171309542 16 1.2607354171309542 s16 1.3541807798247802 16 1.3541807798247802 s16 -1.6384377160078625 16 -1.6384377160078625 s16 0.04054034327707878 16 0.04054034327707878 s16 0.12135604489522134 16 0.12135604489522134 s16 0.27601460546614476 16 0.27601460546614476 s16 1.9925293511180309 16 1.9925293511180309 s16 -1.0534232505951469 16 -1.0534232505951469 L1342.34 649.8063 Z" fill="none" stroke="black" stroke-width="3"></path></svg>