<svg xmlns:xlink="http://www.w3.org/1999/xlink" xmlns="http://www.w3.org/2000/svg" width="1352.34" height="656.37"><path d="M0 649.8063 L0 328.185 s16 1.0878010371029267 16 1.0878010371029267 s16 2.4832625270178643 16 2.4832625270178643 s16 2.3231585286398593 16 2.3231585286398593 s16 3.0933306173247277 16 3.0933306173247277 s16 0.12935991876484199 16 0.12935991876484199 s16 2.026140688123206 16 2.026140688123206 s16 4.51915831831911 16 4.51915831831911 s16 -4.385159836037296 16 -4.385159836037296 s16 2.834458595648175 16 2.834458595648175 s16 1.1405555624582964 16 1.1405555624582964 s16 -0.14591197485540608 16 -0.14591197485540608 s16 -4.755207415632048 16 -4.755207415632048 s16 -0.6690024358959556 16 -0.6690024358959556 s16 -3.817465943901983 16 -3.817465943901983 s16 2.3322734757410823 16 2.3322734757410823 s16 -0.08999604609115197 16 -0.08999604609115197 s16 2.418656926246412 16 2.418656926246412 s16 0.40023123100239477 16 0.40023123100239477 s16 3.383339500451996 16 3.383339500451996 s16 0.2768324115806209 16 0.2768324115806209 s16 1.33737319948533 16 1.33737319948533 s16 1.8151420883988556 16 1.8151420883988556 s16 2.486326340245568 16 2.486326340245568 s16 0.06888695095153441 16 0.06888695095153441 s16 -1.2221033925769187 16 -1.2221033925769187 s16 0.1127915251510081 16 0.1127915251510081 s16 -2.447230056636287 16 -2.447230056636287 s16 3.229491790230583 16 3.229491790230583 s16 -0.6902420631151562 16 -0.6902420631151562 s16 4.5006421944634045 16 4.5006421944634045 s16 4.329904856772162 16 4.329904856772162 s16 1.444946197198771 16 1.444946197198771 s16 -2.521873166162134 16 -2.521873166162134 s16 -3.6762860676682063 16 -3.6762860676682063 s16 -2.009981488356767 16 -2.009981488356767 s16 1.814772799207911 16 1.814772799207911 s16 4.512133679761541 16 4.512133679761541 s16 -2.292941693537549 16 -2.292941693537549 s16 1.1836769083175502 16 1.1836769083175502 s16 -0.6966856626243145 16 -0.6966856626243145 s16 4.136684059653755 16 4.136684059653755 s16 -1.222307796248907 16 -1.222307796248907 s16 -3.2471517960149754 16 -3.2471517960149754 s16 2.28048915995283 16 2.28048915995283 s16 1.131578731760765 16 1.131578731760765 s16 -4.010283650120179 16 -4.010283650120179 s16 2.228802725134269 16 2.228802725134269 s16 3.0203299831693786 16 3.0203299831693786 s16 4.808434051007882 16 4.808434051007882 s16 1.8142675780926476 16 1.8142675780926476 s16 4.584191591487294 16 4.584191591487294 s16 0.6649265167387308 16 0.6649265167387308 s16 4.338845663230712 16 4.338845663230712 s16 2.1290585798560446 16 2.1290585798560446 s16 -3.9393827193088615 16 -3.9393827193088615 s16 3.1790119259594873 16 3.1790119259594873 s16 -0.12723360688312368 16 -0.12723360688312368 s16 0.16067405121199752 16 0.16067405121199752 s16 4.009241005412423 16 4.009241005412423 s16 0.04661666025134403 16 0.04661666025134403 s16 4.479306439039961 16 4.479306439039961 s16 3.0599889057313856 16 3.0599889057313856 s16 -3.6402808213924143 16 -3.6402808213924143 s16 4.22592163416148 16 4.22592163416148 s16 -3.667081682960951 16 -3.667081682960951 s16 3.87761614031366 16 3.87761614031366 s16 -3.8771762051720304 16 -3.8771762051720304 s16 -3.8596393037760035 16 -3.8596393037760035 s16 -2.2281655320966687 16 -2.2281655320966687 s16 -4.938852366383911 16 -4.938852366383911 s16 -1.897118054131568 16 -1.897118054131568 s16 2.048026298041792 16 2.048026298041792 s16 -2.5380471161742157 16 -2.5380471161742157 s16 -4.894109322360349 16 -4.894109322360349 s16 1.9118708989649735 16 1.9118708989649735 s16 -3.5052960178339165 16 -3.5052960178339165 s16 2.829269612552696 16 2.829269612552696 s16 -3.0251003958878875 16 -3.0251003958878875 s16 1.858375470331226 16 1.858375470331226 s16 2.115828000091531 16 2.115828000091531 s16 0.9337419940508385 16 0.9337419940508385 s16 -1.514223250825959 16 -1.514223250825959 s16 -2.122992838310751 16 -2.122992838310751 s16 1.438355093283461 16 1.438355093283461 L1342.34 649.8063 Z" fill="none" stroke="black" stroke-width="3"></path></svg>