<svg xmlns:xlink="http://www.w3.org/1999/xlink" xmlns="http://www.w3.org/2000/svg" width="1352.34" height="656.37"><path d="M0 649.8063 L0 328.185 s16 -4.7380839503732295 16 -4.7380839503732295 s16 3.4387600790631825 16 3.4387600790631825 s16 1.3128155303621756 16 1.3128155303621756 s16 -1.2081613156684279 16 -1.2081613156684279 s16 6.365077293285291 16 6.365077293285291 s16 -2.6322668191480934 16 -2.6322668191480934 s16 0.4627879657507492 16 0.4627879657507492 s16 2.125368038425571 16 2.125368038425571 s16 0.6505764273259085 16 0.6505764273259085 s16 -3.60548063656344 16 -3.60548063656344 s16 -6.708650391077718 16 -6.708650391077718 s16 2.409361872050926 16 2.409361872050926 s16 4.4464259823104655 16 4.4464259823104655 s16 3.382511917722091 16 3.382511917722091 s16 -2.8200159306865205 16 -2.8200159306865205 s16 -4.185618561360773 16 -4.185618561360773 s16 -1.4051721828111132 16 -1.4051721828111132 s16 5.956163902507026 16 5.956163902507026 s16 4.017345393770009 16 4.017345393770009 s16 0.9956214480255117 16 0.9956214480255117 s16 3.7555476124229754 16 3.7555476124229754 s16 6.205980918584723 16 6.205980918584723 s16 -2.249862263621159 16 -2.249862263621159 s16 -2.3864332028855757 16 -2.3864332028855757 s16 -0.7913407932968832 16 -0.7913407932968832 s16 2.24311634348715 16 2.24311634348715 s16 -3.824895812340455 16 -3.824895812340455 s16 -2.812911721647192 16 -2.812911721647192 s16 4.60974441826489 16 4.60974441826489 s16 -4.959192709237998 16 -4.959192709237998 s16 3.7933131288162327 16 3.7933131288162327 s16 4.141503619028726 16 4.141503619028726 s16 -3.775711912185991 16 -3.775711912185991 s16 5.984694902692249 16 5.984694902692249 s16 -0.17275817774824187 16 -0.17275817774824187 s16 -1.538813679710302 16 -1.538813679710302 s16 -3.3082426713908015 16 -3.3082426713908015 s16 -3.4918065933731643 16 -3.4918065933731643 s16 -4.666845530841963 16 -4.666845530841963 s16 -5.7732922042010575 16 -5.7732922042010575 s16 3.5469219430972077 16 3.5469219430972077 s16 4.719854361275237 16 4.719854361275237 s16 -4.4775620589253355 16 -4.4775620589253355 s16 2.1974874022171003 16 2.1974874022171003 s16 -5.810636035251672 16 -5.810636035251672 s16 -6.109124003911483 16 -6.109124003911483 s16 -0.8316304192728574 16 -0.8316304192728574 s16 -2.7788299920299293 16 -2.7788299920299293 s16 1.6357828084132882 16 1.6357828084132882 s16 1.002810435326508 16 1.002810435326508 s16 -0.33578294821726207 16 -0.33578294821726207 s16 0.6398750856204183 16 0.6398750856204183 s16 -6.455129413679124 16 -6.455129413679124 s16 -0.49014479938950073 16 -0.49014479938950073 s16 -2.1016616634697938 16 -2.1016616634697938 s16 4.5821575943758575 16 4.5821575943758575 s16 5.809103878824329 16 5.809103878824329 s16 0.5323781539667913 16 0.5323781539667913 s16 -5.488495997098073 16 -5.488495997098073 s16 6.87137962699671 16 6.87137962699671 s16 6.3307425010848775 16 6.3307425010848775 s16 5.2890762162302405 16 5.2890762162302405 s16 0.2606611604448319 16 0.2606611604448319 s16 6.000940982731489 16 6.000940982731489 s16 -2.476501551941688 16 -2.476501551941688 s16 4.276767515142416 16 4.276767515142416 s16 6.420291160478475 16 6.420291160478475 s16 0.8229889707616773 16 0.8229889707616773 s16 1.7103176752336768 16 1.7103176752336768 s16 -3.2697872375366868 16 -3.2697872375366868 s16 4.019676570458165 16 4.019676570458165 s16 1.1770631460485985 16 1.1770631460485985 s16 0.19852678886759367 16 0.19852678886759367 s16 -3.5634599825806297 16 -3.5634599825806297 s16 3.0268150039827066 16 3.0268150039827066 s16 -3.6385300282091193 16 -3.6385300282091193 s16 -1.7724106684000493 16 -1.7724106684000493 s16 5.606284050940795 16 5.606284050940795 s16 -5.514207259061391 16 -5.514207259061391 s16 5.133313629039689 16 5.133313629039689 s16 -2.268829357603155 16 -2.268829357603155 s16 6.558722355243715 16 6.558722355243715 s16 6.607912171708692 16 6.607912171708692 s16 -0.36125248989525005 16 -0.36125248989525005 L1342.34 649.8063 Z" fill="none" stroke="black" stroke-width="3"></path></svg>